<svg t="1689903445169" class="icon" viewBox="0 0 1024 1024" version="1.1" xmlns="http://www.w3.org/2000/svg" p-id="3138" width="128" height="128"><path d="M543.992239 799.986595H32.003528A32.037394 32.037394 0 0 1 0 767.994356V32.003528A32.037394 32.037394 0 0 1 32.003528 0h511.988711a32.037394 32.037394 0 0 1 31.992239 32.003528v735.990828a32.026105 32.026105 0 0 1-31.992239 31.992239z m0-31.992239v15.996119-15.996119zM32.003528 32.003528v735.990828h511.954845l0.045155-735.990828H32.003528z" p-id="3139"></path><path d="M543.992239 799.986595H32.003528A32.037394 32.037394 0 0 1 0 767.994356V32.003528A32.037394 32.037394 0 0 1 32.003528 0h511.988711a32.037394 32.037394 0 0 1 31.992239 32.003528v735.990828a32.026105 32.026105 0 0 1-31.992239 31.992239z m0-31.992239v15.996119-15.996119zM32.003528 32.003528v735.990828h511.954845l0.045155-735.990828H32.003528z" p-id="3140"></path><path d="M991.985184 1023.977423H479.996472a32.037394 32.037394 0 0 1-32.003527-31.992239v-80.003175a15.99612 15.99612 0 0 1 31.992239 0v80.003175h511.988711V255.994356H687.991181a15.99612 15.99612 0 0 1 0-31.992239h303.994003a32.037394 32.037394 0 0 1 31.992239 32.003527v735.990828a32.026105 32.026105 0 0 1-31.992239 31.980951zM447.992945 287.997883h-95.999295a15.99612 15.99612 0 0 1 0-31.992239h95.999295a15.99612 15.99612 0 0 1 0 31.992239zM447.992945 159.995061h-95.999295a15.99612 15.99612 0 0 1 0-31.992239h95.999295a15.99612 15.99612 0 0 1 0 31.992239zM447.992945 416.000706H127.980245a15.99612 15.99612 0 0 1 0-31.992239h320.0127a15.99612 15.99612 0 0 1 0 31.992239zM447.992945 543.98095H127.980245a15.984831 15.984831 0 1 1 0-31.992239h320.0127a15.99612 15.99612 0 0 1 0 31.992239zM447.992945 671.983772H127.980245a15.984831 15.984831 0 1 1 0-31.992239h320.0127a15.984831 15.984831 0 1 1 0 31.992239zM243.40743 159.995061v96.010583h-99.408488v-96.010583h99.408488m0-32.003528h-99.408488a31.992239 31.992239 0 0 0-31.992239 31.992239v96.010584a31.992239 31.992239 0 0 0 31.992239 31.992239h99.408488a31.992239 31.992239 0 0 0 31.992239-31.992239v-96.010584a31.992239 31.992239 0 0 0-31.992239-31.992239z" p-id="3141"></path></svg>